<svg xmlns="http://www.w3.org/2000/svg" xmlns:xlink="http://www.w3.org/1999/xlink" width="822" zoomAndPan="magnify" viewBox="0 0 616.5 54.75" height="73" preserveAspectRatio="xMidYMid meet" version="1.0"><defs><filter x="0%" y="0%" width="100%" height="100%" id="0b52a10498"><feColorMatrix values="0 0 0 0 1 0 0 0 0 1 0 0 0 0 1 0 0 0 1 0" color-interpolation-filters="sRGB"/></filter><clipPath id="7373872792"><path d="M 1.152344 12 L 614.851562 12 L 614.851562 14 L 1.152344 14 Z M 1.152344 12 " clip-rule="nonzero"/></clipPath><mask id="a32af501a9"><g filter="url(#0b52a10498)"><rect x="-61.65" width="739.8" fill="#000000" y="-5.475" height="65.7" fill-opacity="0.5"/></g></mask><clipPath id="389f9101de"><path d="M 0.152344 0.183594 L 613.851562 0.183594 L 613.851562 1.140625 L 0.152344 1.140625 Z M 0.152344 0.183594 " clip-rule="nonzero"/></clipPath><clipPath id="1f5916a96b"><rect x="0" width="614" y="0" height="2"/></clipPath><clipPath id="5ba384e17c"><path d="M 1.152344 43 L 614.851562 43 L 614.851562 45 L 1.152344 45 Z M 1.152344 43 " clip-rule="nonzero"/></clipPath><mask id="a525c1389a"><g filter="url(#0b52a10498)"><rect x="-61.65" width="739.8" fill="#000000" y="-5.475" height="65.7" fill-opacity="0.5"/></g></mask><clipPath id="bb2ab20125"><path d="M 0.152344 0.480469 L 613.851562 0.480469 L 613.851562 1.4375 L 0.152344 1.4375 Z M 0.152344 0.480469 " clip-rule="nonzero"/></clipPath><clipPath id="4d5020990a"><rect x="0" width="614" y="0" height="2"/></clipPath><clipPath id="f885c54bcd"><path d="M 59 0 L 61 0 L 61 54.5 L 59 54.5 Z M 59 0 " clip-rule="nonzero"/></clipPath><mask id="16194bf0d9"><g filter="url(#0b52a10498)"><rect x="-61.65" width="739.8" fill="#000000" y="-5.475" height="65.7" fill-opacity="0.5"/></g></mask><clipPath id="a5826e6d3c"><path d="M 0.683594 0 L 1.878906 0 L 1.878906 54.5 L 0.683594 54.5 Z M 0.683594 0 " clip-rule="nonzero"/></clipPath><clipPath id="fed1ed5d99"><rect x="0" width="2" y="0" height="55"/></clipPath><clipPath id="05b7ecb2ce"><path d="M 137 0 L 140 0 L 140 54.5 L 137 54.5 Z M 137 0 " clip-rule="nonzero"/></clipPath><mask id="96c0f057a3"><g filter="url(#0b52a10498)"><rect x="-61.65" width="739.8" fill="#000000" y="-5.475" height="65.7" fill-opacity="0.5"/></g></mask><clipPath id="e8119d39b7"><path d="M 0.570312 0 L 2.003906 0 L 2.003906 54.5 L 0.570312 54.5 Z M 0.570312 0 " clip-rule="nonzero"/></clipPath><clipPath id="8fac484472"><rect x="0" width="3" y="0" height="55"/></clipPath><clipPath id="6e1b00aa41"><path d="M 245 0 L 247 0 L 247 54.5 L 245 54.5 Z M 245 0 " clip-rule="nonzero"/></clipPath><mask id="1797d8d15c"><g filter="url(#0b52a10498)"><rect x="-61.65" width="739.8" fill="#000000" y="-5.475" height="65.7" fill-opacity="0.5"/></g></mask><clipPath id="a3e2d9c69d"><path d="M 0.554688 0 L 1.988281 0 L 1.988281 54.5 L 0.554688 54.5 Z M 0.554688 0 " clip-rule="nonzero"/></clipPath><clipPath id="5962f7c913"><rect x="0" width="2" y="0" height="55"/></clipPath><clipPath id="83463f342c"><path d="M 343 0 L 345 0 L 345 54.5 L 343 54.5 Z M 343 0 " clip-rule="nonzero"/></clipPath><mask id="e3f9869a27"><g filter="url(#0b52a10498)"><rect x="-61.65" width="739.8" fill="#000000" y="-5.475" height="65.7" fill-opacity="0.5"/></g></mask><clipPath id="6ae086047a"><path d="M 0.507812 0 L 1.941406 0 L 1.941406 54.5 L 0.507812 54.5 Z M 0.507812 0 " clip-rule="nonzero"/></clipPath><clipPath id="ecf6d074ec"><rect x="0" width="2" y="0" height="55"/></clipPath><clipPath id="e2d105c5fc"><path d="M 462 0 L 464 0 L 464 54.5 L 462 54.5 Z M 462 0 " clip-rule="nonzero"/></clipPath><mask id="910e478497"><g filter="url(#0b52a10498)"><rect x="-61.65" width="739.8" fill="#000000" y="-5.475" height="65.7" fill-opacity="0.5"/></g></mask><clipPath id="7a73e0ab42"><path d="M 0.246094 0 L 1.679688 0 L 1.679688 54.5 L 0.246094 54.5 Z M 0.246094 0 " clip-rule="nonzero"/></clipPath><clipPath id="4bc540d903"><rect x="0" width="2" y="0" height="55"/></clipPath></defs><g clip-path="url(#7373872792)"><g mask="url(#a32af501a9)"><g transform="matrix(1, 0, 0, 1, 1, 12)"><g clip-path="url(#1f5916a96b)"><g clip-path="url(#389f9101de)"><path stroke-linecap="butt" transform="matrix(0.746591, 0, 0, 0.746591, 0.15227, 0.370194)" fill="none" stroke-linejoin="miter" d="M 0.0000981346 0.498257 L 821.515537 0.498257 " stroke="#0e0b1e" stroke-width="1" stroke-opacity="1" stroke-miterlimit="4"/></g></g></g></g></g><g clip-path="url(#5ba384e17c)"><g mask="url(#a525c1389a)"><g transform="matrix(1, 0, 0, 1, 1, 43)"><g clip-path="url(#4d5020990a)"><g clip-path="url(#bb2ab20125)"><path stroke-linecap="butt" transform="matrix(0.746591, 0, 0, 0.746591, 0.15227, 0.482921)" fill="none" stroke-linejoin="miter" d="M 0.0000981346 0.498999 L 821.515537 0.498999 " stroke="#0e0b1e" stroke-width="1" stroke-opacity="1" stroke-miterlimit="4"/></g></g></g></g></g><g clip-path="url(#f885c54bcd)"><g mask="url(#16194bf0d9)"><g transform="matrix(1, 0, 0, 1, 59, -0.000000000000013281)"><g clip-path="url(#fed1ed5d99)"><g clip-path="url(#a5826e6d3c)"><path stroke-linecap="butt" transform="matrix(-0.00513845, -0.746573, 0.746573, -0.00513845, 1.076759, 54.244273)" fill="none" stroke-linejoin="miter" d="M -0.000639759 0.498888 L 72.648987 0.501851 " stroke="#0e0b1e" stroke-width="1" stroke-opacity="1" stroke-miterlimit="4"/></g></g></g></g></g><g clip-path="url(#05b7ecb2ce)"><g mask="url(#96c0f057a3)"><g transform="matrix(1, 0, 0, 1, 137, -0.000000000000013281)"><g clip-path="url(#8fac484472)"><g clip-path="url(#e8119d39b7)"><path stroke-linecap="butt" transform="matrix(-0.00513845, -0.746573, 0.746573, -0.00513845, 1.042844, 54.241703)" fill="none" stroke-linejoin="miter" d="M 0.00112455 0.50247 L 72.645555 0.500165 " stroke="#0e0b1e" stroke-width="1" stroke-opacity="1" stroke-miterlimit="4"/></g></g></g></g></g><g clip-path="url(#6e1b00aa41)"><g mask="url(#1797d8d15c)"><g transform="matrix(1, 0, 0, 1, 245, -0.000000000000013281)"><g clip-path="url(#5962f7c913)"><g clip-path="url(#a3e2d9c69d)"><path stroke-linecap="butt" transform="matrix(-0.00513845, -0.746573, 0.746573, -0.00513845, 1.144377, 54.239137)" fill="none" stroke-linejoin="miter" d="M -0.00231244 0.502485 L 72.64735 0.500217 " stroke="#0e0b1e" stroke-width="1" stroke-opacity="1" stroke-miterlimit="4"/></g></g></g></g></g><g clip-path="url(#83463f342c)"><g mask="url(#e3f9869a27)"><g transform="matrix(1, 0, 0, 1, 343, -0.000000000000013281)"><g clip-path="url(#ecf6d074ec)"><g clip-path="url(#6ae086047a)"><path stroke-linecap="butt" transform="matrix(-0.00513845, -0.746573, 0.746573, -0.00513845, 1.05251, 54.246844)" fill="none" stroke-linejoin="miter" d="M -0.00243611 0.499963 L 72.647226 0.497694 " stroke="#0e0b1e" stroke-width="1" stroke-opacity="1" stroke-miterlimit="4"/></g></g></g></g></g><g clip-path="url(#e2d105c5fc)"><g mask="url(#910e478497)"><g transform="matrix(1, 0, 0, 1, 462, -0.000000000000013281)"><g clip-path="url(#4bc540d903)"><g clip-path="url(#7a73e0ab42)"><path stroke-linecap="butt" transform="matrix(-0.00513845, -0.746573, 0.746573, -0.00513845, 0.750866, 54.24941)" fill="none" stroke-linejoin="miter" d="M 0.000992647 0.501142 L 72.645423 0.498838 " stroke="#0e0b1e" stroke-width="1" stroke-opacity="1" stroke-miterlimit="4"/></g></g></g></g></g></svg>